<svg width="24" height="25" viewBox="0 0 24 25" fill="none" xmlns="http://www.w3.org/2000/svg">
<path fill-rule="evenodd" clip-rule="evenodd" d="M15.2385 16.5798C15.128 16.6828 15.0393 16.807 14.9778 16.945C14.9163 17.083 14.8833 17.232 14.8806 17.3831C14.8779 17.5341 14.9057 17.6842 14.9623 17.8242C15.0189 17.9643 15.1031 18.0916 15.2099 18.1984C15.3168 18.3052 15.444 18.3894 15.5841 18.446C15.7242 18.5026 15.8742 18.5304 16.0253 18.5277C16.1763 18.5251 16.3253 18.492 16.4633 18.4305C16.6013 18.369 16.7255 18.2804 16.8285 18.1698L21.7035 13.2948L22.5 12.4998L21.705 11.7048L16.83 6.82985C16.6179 6.62482 16.3338 6.51129 16.0388 6.51371C15.7438 6.51613 15.4616 6.63432 15.2529 6.8428C15.0443 7.05129 14.9258 7.3334 14.9231 7.62837C14.9204 7.92334 15.0337 8.20757 15.2385 8.41985L18.1935 11.3748H2.625C2.32663 11.3748 2.04048 11.4934 1.8295 11.7044C1.61853 11.9153 1.5 12.2015 1.5 12.4998C1.5 12.7982 1.61853 13.0844 1.8295 13.2953C2.04048 13.5063 2.32663 13.6248 2.625 13.6248H18.1935L15.2385 16.5798Z" fill="white"/>
</svg>
